<?xml version="1.0" encoding="utf-8"?>
<!-- Generator: Adobe Illustrator 23.0.1, SVG Export Plug-In . SVG Version: 6.00 Build 0)  -->
<svg xmlns="http://www.w3.org/2000/svg" xmlns:xlink="http://www.w3.org/1999/xlink" version="1.1" id="Layer_1" x="0px" y="0px" viewBox="0 0 75 75" style="enable-background:new 0 0 75 75;" xml:space="preserve" fill="#fee9d1">
<style type="text/css">
	.st0{fill-rule:evenodd;clip-rule:evenodd;}
</style>
<path class="st0" d="M37.5,55.4c-4.4,0-8-3.6-8-8c0-2,0.8-3.9,2-5.3V25.4c0-3.3,2.7-6,6-6c3.3,0,6,2.7,6,6v16.7c1.2,1.4,2,3.3,2,5.3  C45.5,51.8,41.9,55.4,37.5,55.4z M39.5,43.9v-4.3V29.4v-4c0-1.1-0.9-2-2-2c-1.1,0-2,0.9-2,2v4v10.3v4.3c-1.2,0.7-2,2-2,3.4  c0,2.2,1.8,4,4,4s4-1.8,4-4C41.5,45.9,40.7,44.6,39.5,43.9z M37.5,50.4c-1.7,0-3-1.3-3-3c0-1.3,0.8-2.4,2-2.8V29.3v-3.9  c0-0.6,0.4-1,1-1s1,0.4,1,1v3.9v15.2c1.2,0.4,2,1.5,2,2.8C40.5,49,39.2,50.4,37.5,50.4z"/>
</svg>
