<?xml version="1.0" encoding="utf-8"?>
<!-- Generator: Adobe Illustrator 23.0.1, SVG Export Plug-In . SVG Version: 6.00 Build 0)  -->
<svg xmlns="http://www.w3.org/2000/svg" xmlns:xlink="http://www.w3.org/1999/xlink" version="1.1" id="Layer_1" x="0px" y="0px" viewBox="0 0 75 75" style="enable-background:new 0 0 75 75;" xml:space="preserve" fill="#fee9d1">
<style type="text/css">
	.st0{fill-rule:evenodd;clip-rule:evenodd;}
</style>
<path class="st0" d="M57.3,34.3L57.3,34.3c0.6,0.9,1.1,1.9,1.5,2.9h0l0,0h-4.4l0,0l0,0c-1.4-2.4-4-4-6.9-4c-1.6,0-3.1,0.5-4.3,1.3  c-1.2-5.3-6-9.3-11.7-9.3c-6.6,0-12,5.4-12,12l0,0h-4l0,0c0-8.8,7.2-16,16-16c2,0,3.9,0.4,5.7,1l0,0c1.6-4.7,6.1-8,11.3-8  c0.8,0,1.5,0.1,2.2,0.2c-0.1,0.6-0.2,1.2-0.2,1.8c0,4.4,3.6,8,8,8c0.6,0,1.2-0.1,1.8-0.2c0.1,0.7,0.2,1.5,0.2,2.2  C60.5,29.3,59.3,32.1,57.3,34.3z M46.7,18.4c-2.9,0.7-5.2,2.9-5.9,5.8l0,0c1.9,1.4,3.5,3.2,4.7,5.2c0.7-0.1,1.3-0.2,2-0.2  c2.6,0,5,0.8,7,2.3l0,0c0.9-1,1.5-2.2,1.8-3.5C51.4,27,47.6,23.2,46.7,18.4z M17.5,41.1h40c1.1,0,2,0.9,2,2s-0.9,2-2,2h-40  c-1.1,0-2-0.9-2-2S16.4,41.1,17.5,41.1z M17.5,49.1h40c1.1,0,2,0.9,2,2c0,1.1-0.9,2-2,2h-40c-1.1,0-2-0.9-2-2S16.4,49.1,17.5,49.1z   M17.5,57.1h40c1.1,0,2,0.9,2,2s-0.9,2-2,2h-40c-1.1,0-2-0.9-2-2S16.4,57.1,17.5,57.1z"/>
</svg>
