<?xml version="1.0" encoding="utf-8"?>
<!-- Generator: Adobe Illustrator 23.0.1, SVG Export Plug-In . SVG Version: 6.00 Build 0)  -->
<svg xmlns="http://www.w3.org/2000/svg" xmlns:xlink="http://www.w3.org/1999/xlink" version="1.1" id="Layer_1" x="0px" y="0px" viewBox="0 0 75 75" style="enable-background:new 0 0 75 75;" xml:space="preserve" fill="#fee9d1">
<style type="text/css">
	.st0{fill-rule:evenodd;clip-rule:evenodd;}
</style>
<g>
	<g>
		<path class="st0" d="M37.5,45.1c-1.1,0-2,0.9-2,2v16c0,1.1,0.9,2,2,2c1.1,0,2-0.9,2-2v-16C39.5,46,38.6,45.1,37.5,45.1z     M45.5,41.1c-1.1,0-2,0.9-2,2v16c0,1.1,0.9,2,2,2c1.1,0,2-0.9,2-2v-16C47.5,42,46.6,41.1,45.5,41.1z M29.5,41.1c-1.1,0-2,0.9-2,2    v16c0,1.1,0.9,2,2,2c1.1,0,2-0.9,2-2v-16C31.5,42,30.6,41.1,29.5,41.1z M60.5,26.1c0-0.8-0.1-1.5-0.2-2.2    c-0.6,0.1-1.2,0.2-1.8,0.2c-4.4,0-8-3.6-8-8c0-0.6,0.1-1.2,0.2-1.8c-0.7-0.1-1.5-0.2-2.2-0.2c-5.2,0-9.7,3.4-11.3,8    c-1.8-0.7-3.7-1-5.7-1c-8.8,0-16,7.2-16,16c0,5.9,3.2,11.1,8,13.8v-4.9c-2.5-2.2-4-5.4-4-8.9c0-6.6,5.4-12,12-12    c5.7,0,10.4,4,11.7,9.3c1.3-0.8,2.7-1.3,4.3-1.3c4.4,0,8,3.6,8,8c0,3-1.6,5.5-4,6.9v4.4c4.7-1.6,8-6.1,8-11.3    c0-2.6-0.8-4.9-2.2-6.9C59.3,32.1,60.5,29.3,60.5,26.1z M54.5,31.4c-2-1.4-4.4-2.3-7-2.3c-0.7,0-1.4,0.1-2,0.2    c-1.2-2.1-2.8-3.8-4.7-5.2c0.8-2.9,3-5.1,5.9-5.8c0.9,4.9,4.7,8.7,9.6,9.6C56,29.2,55.4,30.4,54.5,31.4z"/>
	</g>
</g>
</svg>
