<?xml version="1.0" encoding="utf-8"?>
<!-- Generator: Adobe Illustrator 23.0.1, SVG Export Plug-In . SVG Version: 6.00 Build 0)  -->
<svg xmlns="http://www.w3.org/2000/svg" xmlns:xlink="http://www.w3.org/1999/xlink" version="1.1" id="Layer_1" x="0px" y="0px" viewBox="0 0 75 75" style="enable-background:new 0 0 75 75;" xml:space="preserve" fill="#fee9d1">
<style type="text/css">
	.st0{fill-rule:evenodd;clip-rule:evenodd;}
</style>
<path class="st0" d="M31.4,53.1c-8.8,0-16-7.2-16-16s7.2-16,16-16c6,0,11.2,3.3,14,8.2c0.7-0.1,1.3-0.2,2-0.2c6.6,0,12,5.4,12,12  c0,6.6-5.4,12-12,12C44.7,53.1,34.6,53.1,31.4,53.1z M47.4,49.1c4.4,0,8-3.6,8-8c0-4.4-3.6-8-8-8c-1.6,0-3.1,0.5-4.3,1.3  c-1.2-5.3-6-9.3-11.7-9.3c-6.6,0-12,5.4-12,12c0,6.6,5.4,12,12,12C35.1,49.1,44.4,49.1,47.4,49.1z"/>
</svg>
