<?xml version="1.0" encoding="utf-8"?>
<!-- Generator: Adobe Illustrator 23.0.1, SVG Export Plug-In . SVG Version: 6.00 Build 0)  -->
<svg version="1.1" id="Layer_1" xmlns="http://www.w3.org/2000/svg" xmlns:xlink="http://www.w3.org/1999/xlink" x="0px" y="0px"
	 viewBox="0 0 75 75" style="enable-background:new 0 0 75 75;" xml:space="preserve">
<style type="text/css">
	.st0{fill-rule:evenodd;clip-rule:evenodd;}
</style>
<path class="st0" d="M59.5,39.5h-4c-1.1,0-2-0.9-2-2s0.9-2,2-2h4c1.1,0,2,0.9,2,2S60.6,39.5,59.5,39.5z M51.6,26.2
	c-0.8,0.8-2,0.8-2.8,0c-0.8-0.8-0.8-2,0-2.8l2.8-2.8c0.8-0.8,2-0.8,2.8,0c0.8,0.8,0.8,2,0,2.8L51.6,26.2z M37.5,49.5
	c-6.6,0-12-5.4-12-12c0-6.6,5.4-12,12-12c6.6,0,12,5.4,12,12C49.5,44.1,44.1,49.5,37.5,49.5z M37.5,29.5c-4.4,0-8,3.6-8,8
	c0,4.4,3.6,8,8,8s8-3.6,8-8C45.5,33.1,41.9,29.5,37.5,29.5z M37.5,21.5c-1.1,0-2-0.9-2-2v-4c0-1.1,0.9-2,2-2c1.1,0,2,0.9,2,2v4
	C39.5,20.6,38.6,21.5,37.5,21.5z M23.4,26.2l-2.8-2.8c-0.8-0.8-0.8-2,0-2.8s2-0.8,2.8,0l2.8,2.8c0.8,0.8,0.8,2,0,2.8
	S24.1,27,23.4,26.2z M21.5,37.5c0,1.1-0.9,2-2,2h-4c-1.1,0-2-0.9-2-2s0.9-2,2-2h4C20.6,35.5,21.5,36.4,21.5,37.5z M23.4,48.8
	c0.8-0.8,2-0.8,2.8,0c0.8,0.8,0.8,2,0,2.8l-2.8,2.8c-0.8,0.8-2,0.8-2.8,0c-0.8-0.8-0.8-2,0-2.8L23.4,48.8z M37.5,53.5
	c1.1,0,2,0.9,2,2v4c0,1.1-0.9,2-2,2c-1.1,0-2-0.9-2-2v-4C35.5,54.4,36.4,53.5,37.5,53.5z M51.6,48.8l2.8,2.8c0.8,0.8,0.8,2,0,2.8
	c-0.8,0.8-2,0.8-2.8,0l-2.8-2.8c-0.8-0.8-0.8-2,0-2.8C49.6,48,50.9,48,51.6,48.8z"/>
</svg>
