<svg xmlns="http://www.w3.org/2000/svg" role="img" viewBox="27.12 32.72 45.66 41.76"><path fill-rule="evenodd" d="M69.998 65.641H30.003c-1.104 0-2-.896-2-2 0-1.105.896-2 2-2h39.995c1.104 0 2 .895 2 2 0 1.103-.895 2-2 2zm0-8H30.003c-1.104 0-2-.895-2-2 0-1.104.896-2 2-2h39.995c1.104 0 2 .896 2 2 0 1.105-.895 2-2 2zm-9.999-11.998c-1.601 0-3.083.48-4.333 1.291-1.232-5.317-5.974-9.291-11.665-9.291-6.626 0-11.998 5.373-11.998 12h-4c0-8.835 7.163-15.999 15.998-15.999 6.004 0 11.229 3.312 13.965 8.204.664-.113 1.337-.205 2.033-.205 5.222 0 9.652 3.342 11.301 8h-4.381c-1.384-2.39-3.961-4-6.92-4zM30.003 69.639h39.995c1.104 0 2 .896 2 2 0 1.105-.896 2-2 2H30.003c-1.104 0-2-.895-2-2 0-1.104.895-2 2-2z" clip-rule="evenodd"/></svg>