<svg xmlns="http://www.w3.org/2000/svg" role="img" viewBox="27.12 32.72 45.66 38.76"><path fill-rule="evenodd" d="M59.999 65.64h-1c0-1.372-.319-2.742-.943-4h1.943c4.418 0 7.999-3.58 7.999-7.998s-3.581-7.999-7.999-7.999c-1.6 0-3.083.481-4.334 1.29-1.231-5.316-5.973-9.289-11.664-9.289-6.627 0-11.998 5.372-11.998 11.998 0 5.953 4.339 10.879 10.023 11.822-.637 1.217-.969 2.549-1.012 3.887-7.406-1.399-13.012-7.895-13.012-15.709 0-8.835 7.162-15.998 15.998-15.998 6.004 0 11.229 3.312 13.965 8.204.664-.114 1.337-.205 2.033-.205 6.627 0 11.998 5.372 11.998 11.999S66.626 65.64 59.999 65.64zm-9.998-7.071l3.535 3.535c1.951 1.953 1.951 5.118 0 7.07-1.953 1.953-5.119 1.953-7.07 0-1.953-1.952-1.953-5.117 0-7.07l3.535-3.535z" clip-rule="evenodd"/></svg>