<svg xmlns="http://www.w3.org/2000/svg" role="img" viewBox="26.70 16.40 56.40 62.40"><path fill-rule="evenodd" d="M79.941 43.642h-4c-1.104 0-2-.895-2-2 0-1.104.896-2 2-2h4c1.104 0 2 .896 2 2 0 1.106-.896 2-2 2zM72.084 30.33c-.781.781-2.047.781-2.828 0-.781-.78-.781-2.047 0-2.828l2.828-2.828c.781-.78 2.047-.78 2.828 0 .781.781.781 2.048 0 2.828l-2.828 2.828zm-2.947 15.607c1.75 2.084 2.805 4.77 2.805 7.704 0 5.223-3.342 9.652-7.998 11.301v-4.381c2.389-1.383 4-3.961 4-6.92 0-4.417-3.582-7.999-8-7.999-1.6 0-3.084.48-4.334 1.291-1.23-5.317-5.973-9.29-11.664-9.29-6.627 0-11.998 5.372-11.998 11.998 0 3.55 1.551 6.728 4 8.925v4.916c-4.777-2.768-8-7.922-8-13.841 0-8.835 7.162-15.997 15.998-15.997 1.572 0 3.09.231 4.523.654 2.195-2.827 5.617-4.654 9.475-4.654 6.627 0 11.998 5.371 11.998 11.998-.001 1.516-.292 2.96-.805 4.295zM57.943 33.644c-2.211 0-4.215.898-5.662 2.35 2.34 1.435 4.285 3.452 5.629 5.854.664-.113 1.338-.205 2.033-.205 2.125 0 4.119.559 5.85 1.527.096-.494.15-1.004.15-1.527 0-4.419-3.582-7.999-8-7.999zm0-8c-1.104 0-2-.895-2-2v-3.999c0-1.104.896-1.999 2-1.999 1.105 0 2 .895 2 1.999v3.999c0 1.106-.894 2-2 2zm-14.14 4.686l-2.828-2.828c-.779-.78-.779-2.047 0-2.828.781-.78 2.049-.78 2.828 0l2.828 2.828c.781.781.781 2.048 0 2.828-.781.781-2.047.781-2.828 0zm-1.858 23.311c1.105 0 2 .896 2 2v15.998c0 1.105-.895 2-2 2-1.104 0-2-.895-2-2V55.641c0-1.104.897-2 2-2zm8 4c1.104 0 2 .895 2 2v15.998c0 1.104-.896 2-2 2-1.105 0-2-.896-2-2V59.641c0-1.106.895-2 2-2zm7.998-4c1.105 0 2 .896 2 2v15.998c0 1.105-.895 2-2 2-1.104 0-2-.895-2-2V55.641c0-1.104.897-2 2-2z" clip-rule="evenodd"/></svg>