<svg xmlns="http://www.w3.org/2000/svg" role="img" viewBox="26.92 16.52 56.06 55.16"><path fill-rule="evenodd" d="M79.996 43.642h-3.999c-1.104 0-2-.895-2-2 0-1.104.896-2 2-2h3.999c1.104 0 2 .896 2 2 0 1.106-.895 2-2 2zM72.14 30.33c-.781.781-2.047.781-2.828 0-.781-.78-.781-2.047 0-2.828l2.828-2.828c.781-.78 2.047-.78 2.828 0 .781.781.781 2.048 0 2.828L72.14 30.33zm-2.948 15.608c1.748 2.084 2.805 4.77 2.805 7.703 0 6.627-5.371 11.998-11.998 11.998h-1c0-1.371-.319-2.742-.943-3.998h1.943c4.418 0 7.999-3.582 7.999-8s-3.581-7.998-7.999-7.998c-1.601 0-3.084.48-4.334 1.291-1.231-5.318-5.973-9.291-11.664-9.291-6.627 0-11.998 5.372-11.998 11.998 0 1.406.254 2.748.697 4h-.005c1.437 4.053 4.987 7.104 9.331 7.824-.637 1.215-.969 2.547-1.012 3.887-6.096-1.152-10.964-5.76-12.498-11.711h.011c-.33-1.279-.524-2.615-.524-4 0-8.834 7.162-15.997 15.998-15.997 1.572 0 3.089.231 4.523.654 2.195-2.827 5.617-4.654 9.475-4.654 6.627 0 11.998 5.371 11.998 11.998 0 1.516-.292 2.96-.805 4.296zM57.999 33.644c-2.213 0-4.215.898-5.662 2.35 2.34 1.435 4.285 3.452 5.629 5.854.664-.113 1.336-.205 2.033-.205 2.125 0 4.118.559 5.85 1.527.096-.494.149-1.004.149-1.527 0-4.419-3.581-7.999-7.999-7.999zm0-8c-1.104 0-2-.895-2-2v-3.999c0-1.104.896-1.999 2-1.999s2 .895 2 1.999v3.999c0 1.106-.895 2-2 2zM43.858 30.33l-2.828-2.828c-.781-.78-.781-2.047 0-2.828.781-.78 2.047-.78 2.828 0l2.828 2.828c.781.781.781 2.048 0 2.828-.781.781-2.046.781-2.828 0zM50 58.57l3.535 3.535c1.952 1.951 1.952 5.117 0 7.068-1.952 1.953-5.118 1.953-7.07 0-1.952-1.951-1.952-5.117 0-7.068L50 58.57z" clip-rule="evenodd"/></svg>