<?xml version="1.0" encoding="utf-8"?>
<!-- Generator: Adobe Illustrator 23.0.1, SVG Export Plug-In . SVG Version: 6.00 Build 0)  -->
<svg version="1.1" id="Layer_1" xmlns="http://www.w3.org/2000/svg" xmlns:xlink="http://www.w3.org/1999/xlink" x="0px" y="0px"
	 viewBox="0 0 75 75" style="enable-background:new 0 0 75 75;" xml:space="preserve">
<style type="text/css">
	.st0{fill-rule:evenodd;clip-rule:evenodd;}
</style>
<path class="st0" d="M51.5,52.4v-4.4c2.4-1.4,4-4,4-6.9c0-4.4-3.6-8-8-8c-1.6,0-3.1,0.5-4.3,1.3c-1.2-5.3-6-9.3-11.7-9.3
	c-6.6,0-12,5.4-12,12c0,3.5,1.5,6.7,4,8.9V51c-4.8-2.8-8-7.9-8-13.8c0-8.8,7.2-16,16-16c6,0,11.2,3.3,14,8.2c0.7-0.1,1.3-0.2,2-0.2
	c6.6,0,12,5.4,12,12C59.5,46.4,56.2,50.8,51.5,52.4z M29.5,53.1c-1.1,0-1-0.9-1-2v-8c0-1.1-0.1-2,1-2s1,0.9,1,2v8
	C30.5,52.2,30.6,53.1,29.5,53.1z M29.5,57.1c1.1,0,2,0.9,2,2c0,1.1-0.9,2-2,2s-2-0.9-2-2C27.5,58,28.4,57.1,29.5,57.1z M37.5,57.1
	c-1.1,0-1-0.9-1-2v-8c0-1.1-0.1-2,1-2s1,0.9,1,2v8C38.5,56.2,38.6,57.1,37.5,57.1z M37.5,61.1c1.1,0,2,0.9,2,2c0,1.1-0.9,2-2,2
	s-2-0.9-2-2C35.5,62,36.4,61.1,37.5,61.1z M45.5,53.1c-1.1,0-1-0.9-1-2v-8c0-1.1-0.1-2,1-2s1,0.9,1,2v8
	C46.5,52.2,46.6,53.1,45.5,53.1z M45.5,57.1c1.1,0,2,0.9,2,2c0,1.1-0.9,2-2,2s-2-0.9-2-2C43.5,58,44.4,57.1,45.5,57.1z"/>
</svg>
