<?xml version="1.0" encoding="utf-8"?>
<!-- Generator: Adobe Illustrator 23.0.1, SVG Export Plug-In . SVG Version: 6.00 Build 0)  -->
<svg version="1.1" id="Layer_1" xmlns="http://www.w3.org/2000/svg" xmlns:xlink="http://www.w3.org/1999/xlink" x="0px" y="0px"
	 viewBox="0 0 75 75" style="enable-background:new 0 0 75 75;" xml:space="preserve">
<style type="text/css">
	.st0{fill-rule:evenodd;clip-rule:evenodd;}
</style>
<path class="st0" d="M60.5,59.1c-1.1,0-2-0.9-2-2c0-1.1,0.9-2,2-2s2,0.9,2,2C62.5,58.2,61.6,59.1,60.5,59.1z M51.5,52.4v-4.4
	c2.4-1.4,4-4,4-6.9c0-4.4-3.6-8-8-8c-1.6,0-3.1,0.5-4.3,1.3c-1.2-5.3-6-9.3-11.7-9.3c-6.6,0-12,5.4-12,12c0,3.5,1.6,6.7,4,8.9V51
	c-4.8-2.8-8-7.9-8-13.8c0-8.8,7.2-16,16-16c6,0,11.2,3.3,14,8.2c0.7-0.1,1.3-0.2,2-0.2c6.6,0,12,5.4,12,12
	C59.5,46.4,56.2,50.8,51.5,52.4z M18.5,60.1c1.1,0,2,0.9,2,2c0,1.1-0.9,2-2,2s-2-0.9-2-2C16.5,61,17.4,60.1,18.5,60.1z M28.5,43.1
	c0-1.1-0.1-2,1-2s1,0.9,1,2v24h-2l0,0l0,0c0-2.2-1.8-4-4-4v-2c1.5,0,2.9,0.6,4,1.6V43.1z M37.5,57.1c-1.1,0-1-0.9-1-2v-8
	c0-1.1-0.1-2,1-2s1,0.9,1,2v8C38.5,56.2,38.6,57.1,37.5,57.1z M37.5,61.1c1.1,0,2,0.9,2,2c0,1.1-0.9,2-2,2s-2-0.9-2-2
	C35.5,62,36.4,61.1,37.5,61.1z M45.5,41.1c1.1,0,1,0.9,1,2v18c1.8-2.4,4.7-4,8-4v2c-4.4,0-8,3.6-8,8h-2c0-0.3,0-0.5,0-0.8
	c-0.1-0.3,0-0.7,0-1.2v-22C44.5,42,44.4,41.1,45.5,41.1z"/>
</svg>
