<svg xmlns="http://www.w3.org/2000/svg" role="img" viewBox="41.28 31.08 17.34 37.44"><path fill-rule="evenodd" d="M50 67.867c-4.418 0-8-3.582-8-8 0-2.025.76-3.869 2-5.279V37.871c0-3.313 2.686-6 6-6 3.312 0 6 2.687 6 6v16.717c1.24 1.41 1.998 3.254 1.998 5.279 0 4.418-3.58 8-7.998 8zm2-11.445V37.871c0-1.104-.896-2-2-2-1.105 0-2 .896-2 2V56.422c-1.189.693-2 1.969-2 3.445 0 2.209 1.791 4 4 4s4-1.791 4-4c0-1.476-.811-2.752-2-3.445zm-2 6.445c-1.656 0-3-1.344-3-3 0-1.305.838-2.402 2-2.816V37.87c0-.553.447-1 1-1s1 .447 1 1v19.181c1.162.414 2 1.512 2 2.816 0 1.656-1.344 3-3 3z" clip-rule="evenodd"/></svg>