<?xml version="1.0" encoding="utf-8"?>
<!-- Generator: Adobe Illustrator 23.0.1, SVG Export Plug-In . SVG Version: 6.00 Build 0)  -->
<svg version="1.1" id="Layer_1" xmlns="http://www.w3.org/2000/svg" xmlns:xlink="http://www.w3.org/1999/xlink" x="0px" y="0px"
	 viewBox="0 0 75 75" style="enable-background:new 0 0 75 75;" xml:space="preserve">
<style type="text/css">
	.st0{fill-rule:evenodd;clip-rule:evenodd;}
</style>
<path class="st0" d="M37.5,55.5c-4.4,0-8-3.6-8-8c0-2,0.8-3.9,2-5.3V25.5c0-3.3,2.7-6,6-6c3.3,0,6,2.7,6,6v16.7c1.2,1.4,2,3.3,2,5.3
	C45.5,51.9,41.9,55.5,37.5,55.5z M39.5,44.1v-4.3V29.5v-4c0-1.1-0.9-2-2-2s-2,0.9-2,2v4v10.3v4.3c-1.2,0.7-2,2-2,3.4
	c0,2.2,1.8,4,4,4c2.2,0,4-1.8,4-4C41.5,46,40.7,44.7,39.5,44.1z M37.5,50.5c-1.7,0-3-1.3-3-3s1.3-3,3-3c1.7,0,3,1.3,3,3
	S39.2,50.5,37.5,50.5z"/>
</svg>
