<svg xmlns="http://www.w3.org/2000/svg" role="img" viewBox="41.28 31.28 17.34 37.34"><path fill-rule="evenodd" d="M50 67.997c-4.417 0-7.999-3.581-7.999-7.999 0-2.025.759-3.869 2-5.278V38.001c0-3.313 2.687-5.999 5.999-5.999 3.313 0 6 2.686 6 5.999V54.72c1.24 1.409 1.999 3.253 1.999 5.278 0 4.418-3.581 7.999-7.999 7.999zm2-11.444V38.001c0-1.104-.896-2-2-2s-1.999.896-1.999 2v18.552c-1.19.693-2 1.969-2 3.445 0 2.209 1.791 3.999 3.999 3.999 2.209 0 4-1.79 4-3.999 0-1.477-.81-2.752-2-3.445zm-2 6.445c-1.656 0-2.999-1.344-2.999-3s1.343-3 2.999-3c1.657 0 3 1.344 3 3s-1.343 3-3 3z" clip-rule="evenodd"/></svg>