<?xml version="1.0" encoding="utf-8"?>
<!-- Generator: Adobe Illustrator 23.0.1, SVG Export Plug-In . SVG Version: 6.00 Build 0)  -->
<svg version="1.1" id="Layer_1" xmlns="http://www.w3.org/2000/svg" xmlns:xlink="http://www.w3.org/1999/xlink" x="0px" y="0px"
	 viewBox="0 0 75 75" style="enable-background:new 0 0 75 75;" xml:space="preserve">
<style type="text/css">
	.st0{fill-rule:evenodd;clip-rule:evenodd;}
</style>
<path class="st0" d="M53.5,39.5L53.5,39.5h-3c-1.1,0-2-0.9-2-2s0.9-2,2-2h3c1.1,0,2-0.9,2-2c0-1.1-0.9-2-2-2c-1.1,0-2-0.9-2-2
	s0.9-2,2-2c0.1,0,0.3,0,0.4,0c3.1,0.2,5.6,2.8,5.6,6C59.5,36.8,56.8,39.5,53.5,39.5z M43.5,35.5h-2h-7h-13c-1.1,0-2,0.9-2,2
	s0.9,2,2,2h2h4h3h4h3h4h2c3.3,0,6,2.7,6,6c0,3.2-2.5,5.7-5.6,6c-0.1,0-0.3,0-0.4,0c-1.1,0-2-0.9-2-2c0-1.1,0.9-2,2-2
	c1.1,0,2-0.9,2-2s-0.9-2-2-2h-2h-4h-3h-4h-3h-4h-2c-3.3,0-6-2.7-6-6c0-3.2,2.5-5.7,5.6-6c0.1,0,0.3,0,0.4,0l0,0h13h7h2
	c1.1,0,2-0.9,2-2s-0.9-2-2-2c-1.1,0-2-0.9-2-2c0-1.1,0.9-2,2-2c0.1,0,0.3,0,0.4,0c3.1,0.2,5.6,2.8,5.6,6
	C49.5,32.8,46.8,35.5,43.5,35.5z"/>
</svg>
