<svg xmlns="http://www.w3.org/2000/svg" role="img" viewBox="26.98 25.58 46.94 53.04"><path fill-rule="evenodd" d="M50.001 57.641c-1.105 0-2 .895-2 2v15.998c0 1.104.895 2 2 2 1.104 0 2-.896 2-2V59.641c0-1.106-.897-2-2-2zm7.998-4c-1.104 0-1.999.896-1.999 2v15.998c0 1.105.896 2 1.999 2 1.105 0 2-.895 2-2V55.641c0-1.104-.895-2-2-2zm-15.998 0c-1.104 0-1.999.896-1.999 2v15.998c0 1.105.896 2 1.999 2 1.105 0 2-.895 2-2V55.641c0-1.104-.895-2-2-2zm30.996-14.999c0-.754-.078-1.49-.211-2.207-.576.132-1.173.208-1.788.208-4.418 0-7.999-3.581-7.999-7.999 0-.615.076-1.213.207-1.788-.716-.134-1.451-.212-2.207-.212-5.24 0-9.684 3.365-11.318 8.047-1.766-.672-3.678-1.047-5.68-1.047-8.835 0-15.998 7.162-15.998 15.997 0 5.919 3.223 11.074 8 13.841v-4.916c-2.45-2.197-4-5.375-4-8.925 0-6.626 5.371-11.998 11.998-11.998 5.691 0 10.434 3.973 11.665 9.29 1.25-.811 2.733-1.291 4.333-1.291 4.418 0 7.999 3.581 7.999 7.999 0 2.959-1.61 5.537-3.999 6.92v4.381c4.656-1.648 7.999-6.078 7.999-11.301 0-2.562-.811-4.933-2.18-6.882 1.968-2.138 3.179-4.982 3.179-8.117zm-5.992 5.272c-1.973-1.424-4.388-2.271-7.006-2.271-.696 0-1.369.092-2.033.205-1.156-2.068-2.762-3.849-4.679-5.221.75-2.865 3.024-5.111 5.924-5.775.904 4.855 4.726 8.676 9.579 9.58-.301 1.314-.928 2.501-1.785 3.482z" clip-rule="evenodd"/></svg>