<svg xmlns="http://www.w3.org/2000/svg" role="img" viewBox="27.10 25.70 46.70 46.80"><path fill-rule="evenodd" d="M69.818 46.759c1.369 1.949 2.18 4.319 2.18 6.881 0 5.223-3.342 9.652-7.999 11.303v-4.381c2.389-1.385 3.999-3.963 3.999-6.922 0-4.417-3.581-7.999-7.999-7.999-1.6 0-3.083.48-4.333 1.291-1.232-5.317-5.974-9.291-11.665-9.291-6.626 0-11.998 5.373-11.998 12 0 3.549 1.55 6.729 3.999 8.924v4.916c-4.776-2.768-7.999-7.922-7.999-13.84 0-8.835 7.163-15.999 15.998-15.999 2.002 0 3.914.376 5.68 1.048 1.635-4.682 6.078-8.047 11.318-8.047.755 0 1.491.078 2.208.211-.132.576-.208 1.174-.208 1.789 0 4.418 3.581 7.998 7.999 7.998.615 0 1.212-.075 1.788-.207.134.717.212 1.453.212 2.207 0 3.136-1.212 5.98-3.18 8.118zM59.211 30.852c-2.9.664-5.174 2.91-5.924 5.775 1.917 1.372 3.522 3.152 4.679 5.221.664-.113 1.337-.205 2.033-.205 2.618 0 5.033.847 7.005 2.271.859-.98 1.486-2.167 1.786-3.482-4.854-.905-8.675-4.726-9.579-9.58zM43.073 59.641c.552-.957 1.775-1.283 2.731-.732L48 60.177v-2.535c0-1.104.896-2 2-2s1.999.896 1.999 2v2.535l2.196-1.268c.956-.551 2.18-.225 2.731.732.553.957.225 2.18-.731 2.732L54 63.641l2.196 1.268c.956.553 1.284 1.775.731 2.732-.552.955-1.775 1.283-2.731.73L52 67.104v2.535c0 1.105-.896 2-1.999 2-1.104 0-2-.895-2-2v-2.535l-2.196 1.268c-.956.553-2.18.225-2.731-.73-.552-.957-.225-2.18.731-2.732l2.196-1.268-2.196-1.268c-.956-.554-1.284-1.776-.732-2.733zm6.928 6c1.104 0 1.999-.896 1.999-2 0-1.105-.896-2-1.999-2-1.104 0-2 .895-2 2 0 1.103.895 2 2 2z" clip-rule="evenodd"/></svg>