<?xml version="1.0" encoding="utf-8"?>
<!-- Generator: Adobe Illustrator 23.0.1, SVG Export Plug-In . SVG Version: 6.00 Build 0)  -->
<svg version="1.1" id="Layer_1" xmlns="http://www.w3.org/2000/svg" xmlns:xlink="http://www.w3.org/1999/xlink" x="0px" y="0px"
	 viewBox="0 0 75 75" style="enable-background:new 0 0 75 75;" xml:space="preserve">
<style type="text/css">
	.st0{fill-rule:evenodd;clip-rule:evenodd;}
</style>
<path class="st0" d="M57.3,34.3L57.3,34.3c1.4,1.9,2.2,4.3,2.2,6.9c0,5.2-3.3,9.7-8,11.3v-4.4c2.4-1.4,4-4,4-6.9c0-4.4-3.6-8-8-8
	c-1.6,0-3.1,0.5-4.3,1.3c-1.2-5.3-6-9.3-11.7-9.3c-6.6,0-12,5.4-12,12c0,3.5,1.5,6.7,4,8.9V51c-4.8-2.8-8-7.9-8-13.8
	c0-8.8,7.2-16,16-16c2,0,3.9,0.4,5.7,1l0,0c1.6-4.7,6.1-8,11.3-8c0.8,0,1.5,0.1,2.2,0.2c-0.1,0.6-0.2,1.2-0.2,1.8c0,4.4,3.6,8,8,8
	c0.6,0,1.2-0.1,1.8-0.2c0.1,0.7,0.2,1.5,0.2,2.2C60.5,29.3,59.3,32.1,57.3,34.3z M46.7,18.4c-2.9,0.7-5.2,2.9-5.9,5.8
	c1.9,1.4,3.5,3.2,4.7,5.2c0.7-0.1,1.3-0.2,2-0.2c2.6,0,5,0.8,7,2.3l0,0c0.9-1,1.5-2.2,1.8-3.5C51.4,27,47.6,23.2,46.7,18.4z
	 M29.5,45.1c1.1,0,2,0.9,2,2c0,1.1-0.9,2-2,2s-2-0.9-2-2C27.5,46,28.4,45.1,29.5,45.1z M29.5,53.1c1.1,0,2,0.9,2,2c0,1.1-0.9,2-2,2
	s-2-0.9-2-2C27.5,54,28.4,53.1,29.5,53.1z M37.5,49.1c1.1,0,2,0.9,2,2c0,1.1-0.9,2-2,2s-2-0.9-2-2C35.5,50,36.4,49.1,37.5,49.1z
	 M37.5,57.1c1.1,0,2,0.9,2,2c0,1.1-0.9,2-2,2s-2-0.9-2-2C35.5,58,36.4,57.1,37.5,57.1z M45.5,45.1c1.1,0,2,0.9,2,2c0,1.1-0.9,2-2,2
	s-2-0.9-2-2C43.5,46,44.4,45.1,45.5,45.1z M45.5,53.1c1.1,0,2,0.9,2,2c0,1.1-0.9,2-2,2s-2-0.9-2-2C43.5,54,44.4,53.1,45.5,53.1z"/>
</svg>
