<svg xmlns="http://www.w3.org/2000/svg" role="img" viewBox="27.06 25.66 46.78 48.88"><path fill-rule="evenodd" d="M69.817 46.759c1.369 1.949 2.18 4.319 2.18 6.881 0 5.223-3.342 9.652-7.998 11.303v-4.381c2.388-1.385 3.999-3.963 3.999-6.922 0-4.417-3.581-7.999-7.999-7.999-1.601 0-3.084.48-4.334 1.291-1.231-5.317-5.973-9.291-11.664-9.291-6.627 0-11.998 5.373-11.998 12 0 3.549 1.55 6.729 3.999 8.924v4.916c-4.777-2.768-7.999-7.922-7.999-13.84 0-8.835 7.162-15.999 15.998-15.999 2.002 0 3.914.376 5.68 1.048 1.635-4.682 6.078-8.047 11.318-8.047.755 0 1.49.078 2.207.211-.131.576-.207 1.174-.207 1.789 0 4.418 3.58 7.998 7.998 7.998.616 0 1.213-.075 1.789-.207.133.717.211 1.453.211 2.207 0 3.136-1.211 5.98-3.18 8.118zM59.21 30.852c-2.899.664-5.174 2.91-5.924 5.775 1.918 1.372 3.523 3.152 4.68 5.221.664-.113 1.336-.205 2.033-.205 2.617 0 5.033.848 7.005 2.271.858-.98 1.485-2.167 1.786-3.482-4.854-.905-8.676-4.726-9.58-9.58zM42.001 57.641c1.104 0 2 .896 2 2 0 1.105-.896 2-2 2s-2-.895-2-2c0-1.104.895-2 2-2zm0 8c1.104 0 2 .895 2 2 0 1.104-.896 1.998-2 1.998s-2-.895-2-1.998c0-1.106.895-2 2-2zm7.999-4c1.104 0 2 .895 2 2 0 1.104-.896 2-2 2s-1.999-.896-1.999-2c0-1.106.895-2 1.999-2zm0 7.998c1.104 0 2 .896 2 2 0 1.105-.896 2-2 2s-1.999-.895-1.999-2c0-1.104.895-2 1.999-2zm7.999-11.998c1.104 0 2 .896 2 2 0 1.105-.896 2-2 2s-2-.895-2-2c0-1.104.896-2 2-2zm0 8c1.104 0 2 .895 2 2 0 1.104-.896 1.998-2 1.998s-2-.895-2-1.998c0-1.106.896-2 2-2z" clip-rule="evenodd"/></svg>