<?xml version="1.0" encoding="utf-8"?>
<!-- Generator: Adobe Illustrator 23.0.1, SVG Export Plug-In . SVG Version: 6.00 Build 0)  -->
<svg xmlns="http://www.w3.org/2000/svg" xmlns:xlink="http://www.w3.org/1999/xlink" version="1.1" id="Layer_1" x="0px" y="0px" viewBox="0 0 75 75" style="enable-background:new 0 0 75 75;" xml:space="preserve" fill="#636d75">
<style type="text/css">
	.st0{fill-rule:evenodd;clip-rule:evenodd;}
</style>
<path class="st0" d="M57.5,53.1h-40c-1.1,0-2-0.9-2-2c0-1.1,0.9-2,2-2h40c1.1,0,2,0.9,2,2C59.5,52.2,58.6,53.1,57.5,53.1z   M57.5,45.1h-40c-1.1,0-2-0.9-2-2c0-1.1,0.9-2,2-2h40c1.1,0,2,0.9,2,2C59.5,44.2,58.6,45.1,57.5,45.1z M47.5,33.1  c-1.6,0-3.1,0.5-4.3,1.3c-1.2-5.3-6-9.3-11.7-9.3c-6.6,0-12,5.4-12,12h-4c0-8.8,7.2-16,16-16c6,0,11.2,3.3,14,8.2  c0.7-0.1,1.3-0.2,2-0.2c5.2,0,9.7,3.3,11.3,8h-4.4C53,34.8,50.5,33.1,47.5,33.1z M17.5,57.1h40c1.1,0,2,0.9,2,2c0,1.1-0.9,2-2,2h-40  c-1.1,0-2-0.9-2-2C15.5,58,16.4,57.1,17.5,57.1z"/>
</svg>
