<?xml version="1.0" encoding="utf-8"?>
<!-- Generator: Adobe Illustrator 23.0.1, SVG Export Plug-In . SVG Version: 6.00 Build 0)  -->
<svg xmlns="http://www.w3.org/2000/svg" xmlns:xlink="http://www.w3.org/1999/xlink" version="1.1" id="Layer_1" x="0px" y="0px" viewBox="0 0 75 75" style="enable-background:new 0 0 75 75;" xml:space="preserve" fill="#636d75">
<style type="text/css">
	.st0{fill-rule:evenodd;clip-rule:evenodd;}
</style>
<path class="st0" d="M47.5,53.1c-0.3,0-0.6,0-1,0c0-1.4-0.3-2.7-0.9-4c0.8,0,1.5,0,1.9,0c4.4,0,8-3.6,8-8s-3.6-8-8-8  c-1.6,0-3.1,0.5-4.3,1.3c-1.2-5.3-6-9.3-11.7-9.3c-6.6,0-12,5.4-12,12c0,6,4.3,10.9,10,11.8c-0.6,1.2-1,2.5-1,3.9  c-7.4-1.4-13-7.9-13-15.7c0-8.8,7.2-16,16-16c6,0,11.2,3.3,14,8.2c0.7-0.1,1.3-0.2,2-0.2c6.6,0,12,5.4,12,12S54.1,53.1,47.5,53.1z   M37.5,46.1l3.5,3.5c2,2,2,5.1,0,7.1c-2,2-5.1,2-7.1,0c-2-2-2-5.1,0-7.1L37.5,46.1z"/>
</svg>
