<?xml version="1.0" encoding="utf-8"?>
<!-- Generator: Adobe Illustrator 23.0.1, SVG Export Plug-In . SVG Version: 6.00 Build 0)  -->
<svg xmlns="http://www.w3.org/2000/svg" xmlns:xlink="http://www.w3.org/1999/xlink" version="1.1" id="Layer_1" x="0px" y="0px" viewBox="0 0 75 75" style="enable-background:new 0 0 75 75;" xml:space="preserve" fill="#636d75">
<style type="text/css">
	.st0{fill-rule:evenodd;clip-rule:evenodd;}
</style>
<path class="st0" d="M67.4,31.1h-4c-1.1,0-2-0.9-2-2c0-1.1,0.9-2,2-2h4c1.1,0,2,0.9,2,2C69.4,30.2,68.5,31.1,67.4,31.1z M59.6,17.8  c-0.8,0.8-2,0.8-2.8,0c-0.8-0.8-0.8-2,0-2.8l2.8-2.8c0.8-0.8,2-0.8,2.8,0c0.8,0.8,0.8,2,0,2.8L59.6,17.8z M56.6,33.4L56.6,33.4  c1.8,2.1,2.8,4.8,2.8,7.7c0,5.2-3.3,9.7-8,11.3v-4.4c2.4-1.4,4-4,4-6.9c0-4.4-3.6-8-8-8c-1.6,0-3.1,0.5-4.3,1.3  c-1.2-5.3-6-9.3-11.7-9.3c-6.6,0-12,5.4-12,12c0,3.5,1.6,6.7,4,8.9V51c-4.8-2.8-8-7.9-8-13.8c0-8.8,7.2-16,16-16  c1.6,0,3.1,0.2,4.5,0.7c2.2-2.8,5.6-4.7,9.5-4.7c6.6,0,12,5.4,12,12C57.4,30.7,57.2,32.1,56.6,33.4z M45.4,21.1  c-2.2,0-4.2,0.9-5.7,2.3c2.3,1.4,4.3,3.5,5.6,5.9c0.7-0.1,1.3-0.2,2-0.2c2.1,0,4.1,0.6,5.9,1.5l0,0c0.1-0.5,0.2-1,0.2-1.5  C53.4,24.7,49.9,21.1,45.4,21.1z M45.4,13.1c-1.1,0-2-0.9-2-2v-4c0-1.1,0.9-2,2-2c1.1,0,2,0.9,2,2v4C47.4,12.3,46.5,13.1,45.4,13.1z   M31.3,17.8L28.5,15c-0.8-0.8-0.8-2,0-2.8c0.8-0.8,2-0.8,2.8,0l2.8,2.8c0.8,0.8,0.8,2,0,2.8C33.3,18.6,32.1,18.6,31.3,17.8z   M29.4,41.1c1.1,0,2,0.9,2,2v16c0,1.1-0.9,2-2,2c-1.1,0-2-0.9-2-2v-16C27.4,42,28.3,41.1,29.4,41.1z M37.4,45.1c1.1,0,2,0.9,2,2v16  c0,1.1-0.9,2-2,2c-1.1,0-2-0.9-2-2v-16C35.4,46,36.3,45.1,37.4,45.1z M45.4,41.1c1.1,0,2,0.9,2,2v16c0,1.1-0.9,2-2,2  c-1.1,0-2-0.9-2-2v-16C43.4,42,44.3,41.1,45.4,41.1z"/>
</svg>
