<?xml version="1.0" encoding="utf-8"?>
<!-- Generator: Adobe Illustrator 23.0.1, SVG Export Plug-In . SVG Version: 6.00 Build 0)  -->
<svg xmlns="http://www.w3.org/2000/svg" xmlns:xlink="http://www.w3.org/1999/xlink" version="1.1" id="Layer_1" x="0px" y="0px" viewBox="0 0 75 75" style="enable-background:new 0 0 75 75;" xml:space="preserve" fill="#636d75">
<style type="text/css">
	.st0{fill-rule:evenodd;clip-rule:evenodd;}
</style>
<path class="st0" d="M51.4,52.4v-4.4c2.4-1.4,4-4,4-6.9c0-4.4-3.6-8-8-8c-1.6,0-3.1,0.5-4.3,1.3c-1.2-5.3-6-9.3-11.7-9.3  c-6.6,0-12,5.4-12,12c0,3.5,1.5,6.7,4,8.9V51c-4.8-2.8-8-7.9-8-13.8c0-8.8,7.2-16,16-16c6,0,11.2,3.3,14,8.2c0.7-0.1,1.3-0.2,2-0.2  c6.6,0,12,5.4,12,12C59.4,46.4,56.1,50.8,51.4,52.4z M29.4,41.1c1.1,0,2,0.9,2,2v4c0,1.1-0.9,2-2,2c-1.1,0-2-0.9-2-2v-4  C27.4,42,28.3,41.1,29.4,41.1z M29.4,53.1c1.1,0,2,0.9,2,2v4c0,1.1-0.9,2-2,2c-1.1,0-2-0.9-2-2v-4C27.4,54,28.3,53.1,29.4,53.1z   M37.4,45.1c1.1,0,2,0.9,2,2v4c0,1.1-0.9,2-2,2c-1.1,0-2-0.9-2-2v-4C35.4,46,36.3,45.1,37.4,45.1z M37.4,57.1c1.1,0,2,0.9,2,2v4  c0,1.1-0.9,2-2,2c-1.1,0-2-0.9-2-2v-4C35.4,58,36.3,57.1,37.4,57.1z M45.4,41.1c1.1,0,2,0.9,2,2v4c0,1.1-0.9,2-2,2c-1.1,0-2-0.9-2-2  v-4C43.4,42,44.3,41.1,45.4,41.1z M45.4,53.1c1.1,0,2,0.9,2,2v4c0,1.1-0.9,2-2,2c-1.1,0-2-0.9-2-2v-4C43.4,54,44.3,53.1,45.4,53.1z"/>
</svg>
