<?xml version="1.0" encoding="utf-8"?>
<!-- Generator: Adobe Illustrator 23.0.1, SVG Export Plug-In . SVG Version: 6.00 Build 0)  -->
<svg xmlns="http://www.w3.org/2000/svg" xmlns:xlink="http://www.w3.org/1999/xlink" version="1.1" id="Layer_1" x="0px" y="0px" viewBox="0 0 75 75" style="enable-background:new 0 0 75 75;" xml:space="preserve" fill="#636d75">
<style type="text/css">
	.st0{fill-rule:evenodd;clip-rule:evenodd;}
</style>
<path class="st0" d="M47.2,34.2l-2,1.1c0.2,0.7,0.3,1.4,0.3,2.1c0,0.7-0.1,1.5-0.3,2.1l2,1.1c1,0.6,1.3,1.8,0.7,2.7  c-0.6,1-1.8,1.3-2.7,0.7l-2-1.1c-1,1-2.3,1.8-3.7,2.1v2.3c0,1.1-0.9,2-2,2s-2-0.9-2-2v-2.3c-1.4-0.4-2.7-1.1-3.7-2.1l-2,1.1  c-1,0.6-2.2,0.2-2.7-0.7c-0.6-1-0.2-2.2,0.7-2.7l2-1.1c-0.2-0.7-0.3-1.4-0.3-2.1c0-0.7,0.1-1.5,0.3-2.1l-2-1.1  c-1-0.6-1.3-1.8-0.7-2.7c0.6-1,1.8-1.3,2.7-0.7l2,1.1c1-1,2.3-1.8,3.7-2.1v-2.3c0-1.1,0.9-2,2-2s2,0.9,2,2v2.3  c1.4,0.4,2.7,1.1,3.7,2.1l2-1.1c1-0.6,2.2-0.2,2.7,0.7C48.4,32.5,48.1,33.7,47.2,34.2z M37.5,33.5c-2.2,0-4,1.8-4,4c0,2.2,1.8,4,4,4  s4-1.8,4-4C41.5,35.3,39.7,33.5,37.5,33.5z"/>
</svg>
