<?xml version="1.0" encoding="utf-8"?>
<!-- Generator: Adobe Illustrator 23.0.1, SVG Export Plug-In . SVG Version: 6.00 Build 0)  -->
<svg xmlns="http://www.w3.org/2000/svg" xmlns:xlink="http://www.w3.org/1999/xlink" version="1.1" id="Layer_1" x="0px" y="0px" viewBox="0 0 75 75" style="enable-background:new 0 0 75 75;" xml:space="preserve" fill="#636d75">
<style type="text/css">
	.st0{fill-rule:evenodd;clip-rule:evenodd;}
</style>
<path class="st0" d="M37.5,49.5c-6.6,0-12-5.4-12-12c0-6.6,5.4-12,12-12c0.8,0,1.5,0.1,2.2,0.2c-0.1,0.6-0.2,1.2-0.2,1.8  c0,4.4,3.6,8,8,8c0.6,0,1.2-0.1,1.8-0.2c0.1,0.7,0.2,1.5,0.2,2.2C49.5,44.1,44.1,49.5,37.5,49.5z M35.7,29.7c-3.6,0.8-6.2,4-6.2,7.8  c0,4.4,3.6,8,8,8c3.8,0,7-2.7,7.8-6.2C40.4,38.4,36.6,34.6,35.7,29.7z"/>
</svg>
