<?xml version="1.0" encoding="utf-8"?>
<!-- Generator: Adobe Illustrator 23.0.1, SVG Export Plug-In . SVG Version: 6.00 Build 0)  -->
<svg xmlns="http://www.w3.org/2000/svg" xmlns:xlink="http://www.w3.org/1999/xlink" version="1.1" id="Layer_1" x="0px" y="0px" viewBox="0 0 75 75" style="enable-background:new 0 0 75 75;" xml:space="preserve" fill="#636d75">
<style type="text/css">
	.st0{fill-rule:evenodd;clip-rule:evenodd;}
</style>
<path class="st0" d="M67.5,31.1h-4c-1.1,0-2-0.9-2-2c0-1.1,0.9-2,2-2h4c1.1,0,2,0.9,2,2C69.5,30.2,68.6,31.1,67.5,31.1z M59.6,17.8  c-0.8,0.8-2,0.8-2.8,0s-0.8-2,0-2.8l2.8-2.8c0.8-0.8,2-0.8,2.8,0c0.8,0.8,0.8,2,0,2.8L59.6,17.8z M56.7,33.4L56.7,33.4  c0.9,1.1,1.6,2.3,2.1,3.7h-4.4c-1.4-2.4-4-4-6.9-4c-1.6,0-3.1,0.5-4.3,1.3c-1.2-5.3-6-9.3-11.7-9.3c-6.6,0-12,5.4-12,12h-4  c0-8.8,7.2-16,16-16c1.6,0,3.1,0.2,4.5,0.7c2.2-2.8,5.6-4.7,9.5-4.7c6.6,0,12,5.4,12,12C57.5,30.7,57.2,32.1,56.7,33.4z M45.5,21.1  c-2.2,0-4.2,0.9-5.7,2.4c2.3,1.4,4.3,3.5,5.6,5.9c0.7-0.1,1.3-0.2,2-0.2c2.1,0,4.1,0.6,5.9,1.5l0,0c0.1-0.5,0.1-1,0.1-1.5  C53.5,24.7,49.9,21.1,45.5,21.1z M45.5,13.1c-1.1,0-2-0.9-2-2v-4c0-1.1,0.9-2,2-2s2,0.9,2,2v4C47.5,12.3,46.6,13.1,45.5,13.1z   M31.4,17.8L28.5,15c-0.8-0.8-0.8-2,0-2.8c0.8-0.8,2-0.8,2.8,0l2.8,2.8c0.8,0.8,0.8,2,0,2.8C33.4,18.6,32.1,18.6,31.4,17.8z   M17.5,41.1h40c1.1,0,2,0.9,2,2c0,1.1-0.9,2-2,2h-40c-1.1,0-2-0.9-2-2C15.5,42,16.4,41.1,17.5,41.1z M17.5,49.1h40c1.1,0,2,0.9,2,2  c0,1.1-0.9,2-2,2h-40c-1.1,0-2-0.9-2-2C15.5,50,16.4,49.1,17.5,49.1z M17.5,57.1h40c1.1,0,2,0.9,2,2c0,1.1-0.9,2-2,2h-40  c-1.1,0-2-0.9-2-2C15.5,58,16.4,57.1,17.5,57.1z"/>
</svg>
