<svg xmlns="http://www.w3.org/2000/svg" viewBox="0 0 290 290" enable-background="new 0 0 290 290"><style type="text/css">.st0{fill:#F99319;}</style><path class="st0" d="M145 51.79c-51.49 0-93.23 41.74-93.23 93.23 0 6.52.68 12.89 1.96 19.03 13.32-4.38 29.24-6.95 46.38-6.95 46.72 0 84.59 18.94 84.59 42.3 0 3.37-.87 6.63-2.36 9.77 8.26 3.13 13.66 7.98 14.23 13.48 25.1-16.71 41.65-45.23 41.65-77.64.01-51.48-41.73-93.22-93.22-93.22zM145 290c-79.95 0-145-65.04-145-145s65.05-145 145-145 145 65.04 145 145-65.05 145-145 145zm0-267.69c-67.65 0-122.69 55.04-122.69 122.69s55.04 122.69 122.69 122.69 122.69-55.04 122.69-122.69-55.04-122.69-122.69-122.69z"/></svg>